<?xml version="1.0" standalone="no"?>
<!DOCTYPE svg PUBLIC "-//W3C//DTD SVG 20010904//EN"
 "http://www.w3.org/TR/2001/REC-SVG-20010904/DTD/svg10.dtd">
<svg version="1.0" xmlns="http://www.w3.org/2000/svg"
 width="260.000000pt" height="260.000000pt" viewBox="0 0 260.000000 260.000000"
 preserveAspectRatio="xMidYMid meet">
<metadata>
Created by potrace 1.14, written by Peter Selinger 2001-2017
</metadata>
<g transform="translate(0.000000,260.000000) scale(0.100000,-0.100000)"
fill="#000000" stroke="none">
<path d="M721 1900 c-13 -11 -29 -20 -36 -20 -23 0 -55 -82 -55 -142 0 -62 16
-118 33 -118 7 0 25 -12 42 -26 38 -33 79 -27 118 18 47 56 32 80 -18 28 -59
-61 -115 -13 -115 98 0 102 44 156 109 134 33 -12 38 -6 19 21 -21 27 -69 30
-97 7z"/>
<path d="M950 1910 c-23 -14 -3 -24 44 -21 58 3 82 -13 112 -77 31 -66 25
-110 -22 -158 -37 -39 -61 -42 -97 -14 -52 41 -45 118 16 187 29 32 29 33 6
33 -14 0 -39 -18 -67 -46 -37 -39 -44 -54 -49 -98 -7 -65 4 -86 59 -114 24
-13 50 -28 59 -34 26 -18 80 19 107 72 39 77 25 198 -28 252 -23 23 -37 28
-77 28 -26 0 -55 -4 -63 -10z"/>
<path d="M1250 1907 c-51 -14 -58 -30 -14 -37 l29 -5 -3 -115 c-3 -110 -2
-116 22 -145 22 -26 26 -27 32 -11 4 9 5 75 2 146 -5 138 -4 140 45 140 12 0
33 9 47 20 l25 20 -70 -1 c-38 0 -90 -6 -115 -12z"/>
<path d="M1540 1907 c-53 -14 -59 -31 -11 -35 l34 -3 -7 -119 c-6 -113 -5
-121 15 -144 12 -14 26 -23 31 -20 5 3 8 65 8 137 -1 73 -1 138 -1 145 1 7 15
12 36 12 22 0 44 8 57 20 l22 20 -70 -1 c-38 0 -89 -6 -114 -12z"/>
<path d="M1870 1895 c-7 -8 -19 -15 -26 -15 -32 0 -74 -138 -74 -246 0 -47 7
-58 26 -40 7 8 41 19 76 25 61 10 63 10 90 -16 l28 -27 0 65 c0 72 -31 206
-56 244 -18 28 -45 32 -64 10z m42 -91 c9 -32 19 -72 20 -89 3 -28 1 -30 -59
-46 -35 -10 -65 -14 -68 -9 -12 19 31 165 58 198 18 22 31 8 49 -54z"/>
<path d="M1427 1560 c-12 -18 -16 -19 -27 -5 -26 31 -40 18 -33 -30 5 -41 4
-45 -14 -45 -12 0 -28 -11 -37 -25 -9 -14 -12 -25 -7 -25 5 0 11 -9 14 -20 4
-15 14 -20 36 -20 17 0 31 -4 31 -10 0 -5 -6 -10 -14 -10 -30 0 -66 -41 -66
-75 0 -42 23 -60 74 -59 53 1 94 27 98 62 2 21 9 28 30 30 30 4 44 41 34 90
-6 24 -2 30 29 47 40 21 61 50 44 60 -16 10 -62 -4 -86 -27 -27 -25 -26 -26
-44 32 -16 50 -39 62 -62 30z m23 -134 c0 -3 -4 -8 -10 -11 -5 -3 -10 -1 -10
4 0 6 5 11 10 11 6 0 10 -2 10 -4z"/>
<path d="M1633 1179 c4 -13 10 -46 13 -74 5 -46 3 -52 -23 -77 -72 -67 -298
-90 -466 -47 -102 26 -147 49 -182 90 -23 28 -26 39 -21 71 6 37 6 38 -16 26
-13 -7 -26 -17 -29 -22 -9 -12 1 -47 12 -40 5 3 9 -3 9 -13 0 -10 14 -27 31
-38 35 -23 69 -74 69 -103 0 -52 41 -92 93 -92 12 0 42 10 67 21 36 16 42 22
30 30 -11 8 -8 9 13 4 19 -4 26 -2 22 5 -12 20 176 -10 200 -31 16 -16 89 -9
121 10 20 12 34 32 43 60 7 24 33 65 62 97 69 76 62 124 -21 140 -31 7 -33 6
-27 -17z m-32 -232 c-10 -9 -11 -8 -5 6 3 10 9 15 12 12 3 -3 0 -11 -7 -18z
m-444 -60 c3 -4 -8 -7 -25 -7 -17 0 -33 3 -35 8 -6 9 50 8 60 -1z"/>
<path d="M945 719 c-11 -16 -2 -17 25 -2 24 12 24 13 3 13 -12 0 -25 -5 -28
-11z"/>
<path d="M1455 689 c-11 -16 -2 -17 25 -2 24 12 24 13 3 13 -12 0 -25 -5 -28
-11z"/>
<path d="M1620 690 c-8 -5 -10 -10 -5 -10 6 0 17 5 25 10 8 5 11 10 5 10 -5 0
-17 -5 -25 -10z"/>
<path d="M920 645 c-11 -38 -11 -48 0 -58 10 -9 11 -9 6 1 -5 7 -5 25 -1 39 5
20 11 24 31 20 20 -3 23 -2 12 7 -7 6 -18 17 -24 24 -9 9 -14 2 -24 -33z"/>
<path d="M1085 680 c-7 -12 2 -12 30 0 19 8 19 9 -2 9 -12 1 -25 -3 -28 -9z"/>
<path d="M1141 610 l2 -65 6 52 c7 58 20 77 47 71 17 -3 19 -13 17 -73 -1 -51
1 -62 7 -40 12 48 11 102 -3 114 -7 6 -28 9 -45 8 l-32 -2 1 -65z"/>
<path d="M1290 616 c0 -66 6 -96 20 -96 5 0 6 18 3 40 -6 40 -6 40 29 40 19 0
38 -4 44 -9 5 -6 9 3 10 24 0 33 0 33 -14 14 -10 -14 -23 -19 -45 -17 -29 3
-32 6 -32 36 0 17 -3 32 -7 32 -5 0 -8 -29 -8 -64z"/>
<path d="M1609 657 c9 -12 25 -17 45 -15 27 3 31 0 30 -20 0 -16 2 -20 10 -12
18 18 -8 45 -39 42 -15 -2 -34 3 -43 10 -15 12 -16 11 -3 -5z"/>
<path d="M1072 635 c0 -16 2 -22 5 -12 2 9 2 23 0 30 -3 6 -5 -1 -5 -18z"/>
<path d="M1461 648 c1 -29 14 -46 24 -34 7 8 5 16 -7 29 -11 11 -18 12 -17 5z"/>
<path d="M1062 575 c0 -16 2 -22 5 -12 2 9 2 23 0 30 -3 6 -5 -1 -5 -18z"/>
<path d="M948 573 c7 -3 16 -2 19 1 4 3 -2 6 -13 5 -11 0 -14 -3 -6 -6z"/>
<path d="M1480 560 c0 -5 5 -10 11 -10 5 0 7 5 4 10 -3 6 -8 10 -11 10 -2 0
-4 -4 -4 -10z"/>
<path d="M1370 544 c-24 -13 -24 -14 -4 -14 12 0 24 7 28 15 3 8 4 15 3 14 -1
-1 -13 -7 -27 -15z"/>
</g>
</svg>
